<?xml version="1.0" standalone="no"?>
<!DOCTYPE svg PUBLIC "-//W3C//DTD SVG 20010904//EN"
 "http://www.w3.org/TR/2001/REC-SVG-20010904/DTD/svg10.dtd">
<svg version="1.0" xmlns="http://www.w3.org/2000/svg"
 width="736.000000pt" height="745.000000pt" viewBox="0 0 736.000000 745.000000"
 preserveAspectRatio="xMidYMid meet">

<g transform="translate(0.000000,745.000000) scale(0.100000,-0.100000)"
fill="#000000" stroke="none">
<path d="M4590 5625 l-45 -13 46 2 c26 0 45 4 43 8 -3 4 13 9 33 11 l38 4 -35
0 c-19 1 -55 -5 -80 -12z"/>
<path d="M4731 5636 c2 -2 31 -6 64 -9 39 -4 51 -3 35 2 -25 9 -107 15 -99 7z"/>
<path d="M4873 5613 c9 -2 15 -8 13 -11 -2 -4 6 -7 17 -8 12 0 31 -4 42 -8 11
-3 2 3 -20 14 -22 11 -47 19 -55 19 -10 -1 -10 -3 3 -6z"/>
<path d="M4495 5596 c-24 -17 -29 -47 -7 -38 12 4 13 7 2 10 -8 3 0 12 21 23
19 10 27 18 18 19 -8 0 -24 -6 -34 -14z"/>
<path d="M4364 5534 c-83 -47 -147 -98 -92 -72 16 7 28 16 28 20 0 4 14 5 30
2 18 -4 30 -2 30 4 0 5 -10 8 -22 4 -14 -3 -19 -2 -14 6 4 7 12 12 18 12 6 0
20 7 29 16 10 9 30 18 45 20 30 3 51 19 37 27 -5 3 -45 -14 -89 -39z"/>
<path d="M4885 5570 c-3 -6 1 -7 9 -4 18 7 21 14 7 14 -6 0 -13 -4 -16 -10z"/>
<path d="M4985 5563 c23 -21 60 -39 50 -23 -3 6 -21 17 -38 26 -32 16 -32 16
-12 -3z"/>
<path d="M5045 5520 c-3 -5 -1 -11 5 -15 5 -3 10 -3 10 1 0 4 9 -1 20 -11 15
-13 19 -14 15 -4 -7 20 -43 41 -50 29z"/>
<path d="M5110 5473 c0 -7 8 -17 18 -22 13 -8 14 -11 2 -11 -9 0 -5 -6 10 -15
15 -9 19 -14 10 -15 -12 0 -13 -2 -1 -9 8 -5 9 -11 3 -15 -6 -4 -15 2 -21 11
-9 16 -10 16 -8 -3 1 -18 20 -25 35 -14 1 2 6 3 11 4 22 3 18 14 -19 56 -22
25 -39 40 -40 33z"/>
<path d="M4215 5439 c-4 -6 -5 -13 -2 -16 7 -7 27 6 27 18 0 12 -17 12 -25 -2z"/>
<path d="M4140 5380 c-25 -22 -41 -40 -37 -40 5 0 15 7 24 15 8 8 19 12 25 9
6 -4 8 -2 5 3 -4 6 0 17 9 24 13 10 17 10 24 -2 7 -10 9 -8 7 9 0 12 -4 22 -7
22 -3 0 -25 -18 -50 -40z"/>
<path d="M4222 5391 c7 -9 13 -18 15 -20 1 -2 1 5 0 16 0 11 -7 20 -14 20 -10
0 -10 -4 -1 -16z"/>
<path d="M5217 5334 c5 -13 3 -15 -8 -9 -8 5 -11 5 -6 -1 5 -5 14 -9 20 -9 7
-1 11 -7 9 -14 -1 -7 2 -10 8 -6 7 4 7 12 0 25 -13 25 -32 36 -23 14z"/>
<path d="M4044 5306 c-22 -19 -55 -49 -74 -66 l-35 -33 40 28 c22 16 54 41 72
58 21 20 37 27 49 23 14 -5 15 -4 4 9 -7 8 -14 15 -15 15 -2 0 -20 -15 -41
-34z"/>
<path d="M5246 5266 c-4 -16 -3 -33 3 -39 7 -7 8 -2 4 14 -7 27 5 20 21 -13 8
-17 21 -23 46 -25 l35 -1 -33 6 c-27 6 -37 15 -51 47 l-18 40 -7 -29z"/>
<path d="M5720 5240 l-65 -7 60 -1 c33 0 69 3 80 8 22 9 19 9 -75 0z"/>
<path d="M5220 5231 c0 -6 4 -13 10 -16 6 -3 7 1 4 9 -7 18 -14 21 -14 7z"/>
<path d="M5537 5223 c18 -2 50 -2 70 0 21 2 7 4 -32 4 -38 0 -55 -2 -38 -4z"/>
<path d="M5387 5213 c18 -2 50 -2 70 0 21 2 7 4 -32 4 -38 0 -55 -2 -38 -4z"/>
<path d="M5656 5205 c-16 -9 -36 -13 -43 -10 -8 2 -11 0 -8 -5 3 -6 1 -10 -6
-10 -7 0 -10 -2 -7 -5 3 -3 34 6 69 19 35 14 55 25 44 25 -11 1 -33 -6 -49
-14z"/>
<path d="M3895 5180 c-3 -6 1 -7 9 -4 18 7 21 14 7 14 -6 0 -13 -4 -16 -10z"/>
<path d="M5548 5173 c10 -4 9 -9 -5 -19 -17 -13 -17 -14 2 -7 11 3 24 8 29 11
9 5 -14 22 -29 21 -5 0 -4 -3 3 -6z"/>
<path d="M5455 5114 c-40 -22 -64 -30 -75 -24 -12 7 -16 3 -16 -14 0 -22 2
-22 76 17 84 45 85 46 79 50 -2 2 -31 -11 -64 -29z"/>
<path d="M5380 5120 c-8 -5 -10 -10 -5 -10 6 0 17 5 25 10 8 5 11 10 5 10 -5
0 -17 -5 -25 -10z"/>
<path d="M3785 5079 c-4 -5 2 -6 11 -2 12 4 15 3 10 -5 -10 -16 -1 -15 12 1 8
10 6 13 -8 14 -11 1 -22 -2 -25 -8z"/>
<path d="M3731 5026 c-21 -22 -29 -36 -22 -41 7 -4 10 -1 9 7 -2 7 4 13 12 13
8 0 14 -6 12 -13 -1 -8 2 -11 8 -7 8 5 7 11 -1 21 -9 11 -8 19 6 34 30 33 11
22 -24 -14z"/>
<path d="M2351 5046 c2 -2 54 -6 114 -8 69 -3 95 -2 70 3 -40 8 -192 12 -184
5z"/>
<path d="M5290 5024 c-25 -14 -52 -32 -60 -40 -12 -12 101 47 119 62 14 12
-21 -1 -59 -22z"/>
<path d="M2270 5030 c-20 -6 -21 -8 -5 -8 11 0 29 3 40 8 25 11 -1 11 -35 0z"/>
<path d="M2203 5008 c-13 -6 -23 -15 -23 -20 0 -5 11 -1 25 8 37 24 35 30 -2
12z"/>
<path d="M2618 5013 c7 -3 16 -2 19 1 4 3 -2 6 -13 5 -11 0 -14 -3 -6 -6z"/>
<path d="M2680 4993 c19 -10 37 -21 38 -26 2 -4 7 -5 12 -2 4 2 23 -3 41 -12
19 -10 39 -18 44 -18 15 0 178 -57 190 -65 6 -4 30 -10 55 -13 28 -4 -6 11
-90 39 -74 25 -142 46 -150 47 -8 1 -17 5 -20 8 -3 3 -30 15 -60 27 -82 30
-99 35 -60 15z"/>
<path d="M5210 5000 c-9 -6 -10 -10 -3 -10 6 0 15 5 18 10 8 12 4 12 -15 0z"/>
<path d="M2278 4983 c7 -3 16 -2 19 1 4 3 -2 6 -13 5 -11 0 -14 -3 -6 -6z"/>
<path d="M3657 4962 l-27 -28 27 -25 c15 -13 22 -17 15 -7 -9 11 -10 18 -2 23
7 4 8 11 1 18 -10 14 12 40 25 29 4 -4 4 -1 0 6 -9 16 -8 16 -39 -16z m7 -33
c-3 -5 -10 -7 -15 -3 -5 3 -7 10 -3 15 3 5 10 7 15 3 5 -3 7 -10 3 -15z"/>
<path d="M2122 4947 c-21 -21 -28 -37 -23 -46 6 -9 11 -10 15 -2 4 6 2 11 -3
11 -6 0 -3 9 6 19 9 11 21 17 26 14 6 -3 7 -1 3 5 -3 6 2 15 11 21 10 6 13 11
7 11 -5 0 -24 -15 -42 -33z"/>
<path d="M5159 4957 c13 -16 13 -18 0 -15 -8 1 -15 -1 -16 -6 -1 -5 -7 -12
-14 -17 -8 -4 -11 -10 -8 -13 2 -3 17 5 33 17 27 22 27 23 10 37 -18 14 -18
14 -5 -3z"/>
<path d="M2136 4918 c3 -5 10 -6 15 -3 13 9 11 12 -6 12 -8 0 -12 -4 -9 -9z"/>
<path d="M3620 4916 c0 -2 8 -10 18 -17 15 -13 16 -12 3 4 -13 16 -21 21 -21
13z"/>
<path d="M5275 4872 c-186 -131 -322 -275 -682 -722 -344 -428 -454 -552 -609
-691 -338 -302 -574 -392 -961 -369 -543 33 -944 203 -1468 624 l-50 40 50
-55 c88 -94 379 -400 533 -559 87 -90 94 -101 132 -199 255 -654 567 -1171
763 -1264 44 -21 109 -22 147 -2 63 32 96 118 151 385 51 250 89 364 151 452
41 57 -165 136 -322 124 -92 -7 -75 6 35 28 232 45 375 21 489 -84 116 -107
163 -264 186 -625 18 -272 38 -357 92 -386 33 -18 112 -4 178 32 495 264 1149
1857 1250 3044 6 72 10 163 8 203 l-3 73 -70 -49z"/>
<path d="M3575 4890 c-15 -17 -16 -23 -5 -33 10 -10 12 -8 6 7 -5 14 -3 17 11
12 10 -4 14 -4 10 0 -4 4 -2 13 4 21 18 21 -6 15 -26 -7z"/>
<path d="M2060 4864 c-12 -19 -20 -38 -16 -41 3 -4 6 -1 6 6 0 7 4 9 10 6 6
-4 7 1 3 11 -4 11 -2 15 4 11 6 -4 13 4 15 18 7 33 4 32 -22 -11z"/>
<path d="M5003 4875 c6 -7 21 -10 32 -8 19 4 19 3 2 -9 -10 -7 -31 -23 -45
-36 -15 -12 -32 -20 -39 -18 -7 3 -10 -1 -7 -9 4 -9 26 2 78 38 40 29 71 54
69 56 -2 3 -9 -1 -15 -7 -13 -13 -32 -16 -25 -4 3 4 -10 7 -28 8 -24 0 -30 -3
-22 -11z"/>
<path d="M3540 4849 c0 -7 -3 -10 -6 -6 -4 3 -30 -13 -58 -36 -29 -23 -63 -50
-76 -60 -31 -22 -4 -10 32 15 29 20 42 23 33 8 -4 -6 5 -5 19 2 27 12 35 28
14 28 -6 0 -4 8 6 19 10 11 24 17 31 15 16 -6 29 12 15 21 -5 3 -10 1 -10 -6z
m-50 -59 c0 -5 -4 -10 -10 -10 -5 0 -10 5 -10 10 0 6 5 10 10 10 6 0 10 -4 10
-10z"/>
<path d="M3028 4843 c6 -2 18 -2 25 0 6 3 1 5 -13 5 -14 0 -19 -2 -12 -5z"/>
<path d="M3095 4840 c-17 -8 -16 -9 7 -7 15 2 30 6 34 10 10 10 -17 8 -41 -3z"/>
<path d="M3180 4832 c24 -8 24 -8 5 -20 -11 -6 -15 -12 -8 -12 6 0 15 5 18 10
7 11 55 14 55 3 0 -3 -8 -16 -17 -27 -18 -21 -18 -21 5 -2 27 23 29 46 3 46
-10 0 -34 2 -52 5 -27 4 -29 3 -9 -3z"/>
<path d="M2998 4823 c7 -3 16 -2 19 1 4 3 -2 6 -13 5 -11 0 -14 -3 -6 -6z"/>
<path d="M2034 4802 c-12 -8 -39 -71 -33 -77 3 -2 14 16 26 41 12 24 21 44 20
44 -1 0 -7 -4 -13 -8z"/>
<path d="M3204 4786 c-3 -8 -11 -14 -17 -12 -7 1 -9 1 -5 -1 14 -8 -20 -33
-37 -27 -10 4 -15 2 -13 -7 2 -7 -18 -25 -44 -39 -27 -14 -48 -29 -48 -33 0
-8 20 3 117 62 35 21 75 71 57 71 -2 0 -7 -6 -10 -14z"/>
<path d="M4902 4777 c-20 -22 -21 -23 -2 -24 23 -2 42 18 31 35 -5 9 -13 6
-29 -11z m23 -7 c-3 -5 -11 -10 -16 -10 -6 0 -7 5 -4 10 3 6 11 10 16 10 6 0
7 -4 4 -10z"/>
<path d="M2045 4760 c-3 -5 -1 -10 4 -10 6 0 11 5 11 10 0 6 -2 10 -4 10 -3 0
-8 -4 -11 -10z"/>
<path d="M4844 4704 l-39 -35 43 32 c38 30 48 39 39 39 -2 0 -21 -16 -43 -36z"/>
<path d="M3278 4672 c-75 -45 -88 -61 -57 -70 11 -3 11 -2 -1 7 -11 8 -11 11
-2 11 7 0 23 9 34 20 13 12 30 18 42 15 12 -3 15 -2 8 1 -9 4 -5 12 12 25 32
25 44 24 20 -2 -19 -22 -19 -22 3 -8 12 7 21 21 20 31 -1 10 -1 18 -2 18 0 -1
-35 -22 -77 -48z"/>
<path d="M1990 4704 c0 -5 -4 -26 -9 -46 -5 -21 -5 -38 -1 -38 8 0 21 82 14
89 -2 2 -4 0 -4 -5z"/>
<path d="M3002 4654 c-7 -8 -8 -14 -3 -14 10 0 25 19 20 25 -2 1 -10 -3 -17
-11z"/>
<path d="M4763 4655 c-7 -8 -9 -16 -4 -19 5 -3 12 1 15 10 8 22 4 25 -11 9z"/>
<path d="M2925 4619 c-22 -10 -29 -16 -15 -13 28 7 80 33 65 33 -5 0 -28 -9
-50 -20z"/>
<path d="M4732 4632 c4 -13 -93 -83 -104 -76 -4 3 -5 -3 -1 -12 4 -12 2 -15
-8 -12 -8 3 -13 12 -13 21 1 9 -4 13 -13 10 -11 -5 -11 -9 4 -26 17 -19 17
-20 1 -14 -10 4 -18 2 -18 -3 0 -21 29 -8 91 41 83 67 83 66 70 74 -6 3 -10 2
-9 -3z"/>
<path d="M4645 4619 c-11 -16 -1 -19 13 -3 7 8 8 14 3 14 -5 0 -13 -5 -16 -11z"/>
<path d="M4669 4599 l-24 -20 28 17 c15 9 27 18 27 20 0 8 -8 4 -31 -17z"/>
<path d="M3150 4598 c0 -6 -6 -8 -13 -5 -8 3 -20 1 -28 -4 -9 -6 2 -7 31 -4
52 7 58 10 30 18 -11 3 -20 1 -20 -5z"/>
<path d="M1966 4582 c-3 -5 -7 -38 -9 -73 -3 -35 -3 -53 0 -39 2 14 8 46 12
73 8 46 7 55 -3 39z"/>
<path d="M3207 4579 c7 -7 15 -10 18 -7 3 3 -2 9 -12 12 -14 6 -15 5 -6 -5z"/>
<path d="M2889 4567 c4 -4 41 -7 82 -5 l74 3 -82 5 c-45 3 -78 1 -74 -3z"/>
<path d="M3068 4573 c7 -3 16 -2 19 1 4 3 -2 6 -13 5 -11 0 -14 -3 -6 -6z"/>
<path d="M4566 4488 c3 -5 10 -6 15 -3 13 9 11 12 -6 12 -8 0 -12 -4 -9 -9z"/>
<path d="M4483 4475 c0 -8 4 -12 9 -9 5 3 6 10 3 15 -9 13 -12 11 -12 -6z"/>
<path d="M4523 4466 c3 -7 0 -20 -6 -27 -10 -11 -9 -11 6 0 19 15 23 41 6 41
-6 0 -9 -6 -6 -14z"/>
<path d="M4485 4431 c3 -6 -3 -15 -14 -20 -10 -6 -21 -18 -25 -27 -3 -9 7 -4
23 12 26 24 32 44 15 44 -3 0 -3 -4 1 -9z"/>
<path d="M1942 4250 c-1 -130 2 -192 11 -209 18 -35 134 -134 142 -121 3 6 2
9 -3 8 -6 -2 -11 2 -12 7 -1 6 -6 17 -11 26 -5 10 -3 21 4 29 10 12 9 12 -5 1
-10 -7 -15 -17 -12 -22 3 -5 1 -9 -4 -9 -17 0 -22 13 -9 29 11 14 10 14 -6 2
-9 -8 -21 -11 -24 -7 -4 4 -1 12 7 17 11 8 9 9 -9 4 -18 -6 -22 -4 -16 6 5 8
5 11 0 7 -4 -4 -15 0 -24 9 -13 14 -16 45 -19 182 -4 237 -9 256 -10 41z"/>
<path d="M4419 4383 c-1 -5 -1 -11 0 -15 0 -5 -3 -8 -9 -8 -5 0 -10 -5 -10
-12 0 -9 3 -9 12 0 11 11 20 42 12 42 -2 0 -5 -3 -5 -7z"/>
<path d="M4365 4319 c-4 -6 -14 -8 -22 -5 -8 3 -12 2 -9 -3 3 -4 -25 -32 -62
-62 -37 -30 -73 -60 -80 -67 -28 -25 -79 -62 -88 -62 -5 1 2 10 15 20 13 11
19 20 14 20 -13 0 -44 -35 -38 -42 3 -3 -9 -17 -28 -31 -27 -20 -37 -23 -53
-14 -17 9 -18 9 -5 -6 16 -20 25 -21 43 -4 7 7 29 23 48 37 19 13 71 53 115
89 44 36 85 69 90 73 30 22 79 67 73 68 -4 0 -10 -5 -13 -11z"/>
<path d="M4265 4280 c-3 -5 -1 -10 4 -10 6 0 11 5 11 10 0 6 -2 10 -4 10 -3 0
-8 -4 -11 -10z"/>
<path d="M1974 4072 c-1 -15 1 -21 3 -14 3 6 9 10 14 6 14 -8 11 12 -3 24 -10
8 -13 4 -14 -16z"/>
<path d="M3960 4009 c-25 -22 -36 -36 -25 -31 11 6 31 22 44 36 13 14 28 23
34 19 6 -3 7 -1 3 5 -9 16 -6 18 -56 -29z"/>
<path d="M3885 3960 c-3 -5 -2 -10 4 -10 5 0 13 5 16 10 3 6 2 10 -4 10 -5 0
-13 -4 -16 -10z"/>
<path d="M3844 3941 c3 -5 -5 -16 -19 -25 -19 -12 -30 -14 -44 -6 -16 8 -19 7
-16 -8 2 -9 4 -20 4 -24 1 -6 101 51 101 57 0 2 -7 6 -16 9 -8 3 -13 2 -10 -3z"/>
<path d="M2106 3912 c-3 -5 9 -19 27 -31 l32 -22 -27 24 c-15 14 -24 28 -21
31 4 3 4 6 0 6 -3 0 -8 -4 -11 -8z"/>
<path d="M3720 3858 c-23 -21 -39 -27 -82 -31 -11 -1 -14 -5 -8 -13 10 -11 3
-24 -12 -24 -5 0 -7 4 -3 9 3 5 2 12 -3 15 -4 2 -8 -6 -8 -19 l0 -23 48 27
c51 27 118 81 102 81 -5 0 -20 -10 -34 -22z"/>
<path d="M2220 3822 c32 -21 48 -26 56 -18 7 6 8 13 3 14 -5 2 -7 8 -3 13 8
13 -10 11 -23 -2 -9 -9 -18 -8 -37 5 -14 9 -29 16 -33 16 -4 0 12 -13 37 -28z"/>
<path d="M2294 3775 c11 -8 25 -15 32 -15 6 0 17 -6 24 -14 6 -8 19 -12 27 -9
10 4 14 2 10 -4 -3 -5 0 -10 7 -10 7 0 13 6 13 13 0 7 -11 11 -24 9 -12 -1
-23 1 -23 5 0 4 -19 14 -42 23 -35 13 -39 14 -24 2z"/>
<path d="M3567 3764 c-16 -17 -83 -31 -105 -23 -15 6 -21 5 -17 -1 3 -6 14
-10 23 -11 9 0 2 -7 -17 -15 -18 -8 -31 -17 -29 -20 6 -5 158 63 158 71 0 7
-5 6 -13 -1z"/>
<path d="M3468 3753 c7 -3 16 -2 19 1 4 3 -2 6 -13 5 -11 0 -14 -3 -6 -6z"/>
<path d="M2431 3706 c2 -2 15 -9 29 -15 24 -11 24 -11 6 3 -16 13 -49 24 -35
12z"/>
<path d="M2494 3681 c3 -5 20 -14 38 -20 38 -13 26 0 -15 17 -16 7 -26 8 -23
3z"/>
<path d="M3372 3679 c-13 -5 -29 -6 -35 -3 -9 5 -9 4 -1 -5 9 -10 19 -9 45 3
37 16 29 21 -9 5z"/>
<path d="M2680 3670 c8 -5 22 -9 30 -9 10 0 8 3 -5 9 -27 12 -43 12 -25 0z"/>
<path d="M2620 3666 c0 -2 7 -7 16 -10 8 -3 12 -2 9 4 -6 10 -25 14 -25 6z"/>
<path d="M2575 3650 c3 -5 11 -10 16 -10 6 0 7 5 4 10 -3 6 -11 10 -16 10 -6
0 -7 -4 -4 -10z"/>
<path d="M3308 3653 c7 -3 16 -2 19 1 4 3 -2 6 -13 5 -11 0 -14 -3 -6 -6z"/>
<path d="M2610 3642 c0 -17 142 -52 200 -50 24 0 27 2 10 4 -65 10 -186 38
-197 47 -9 6 -13 6 -13 -1z"/>
<path d="M3238 3633 c7 -3 16 -2 19 1 4 3 -2 6 -13 5 -11 0 -14 -3 -6 -6z"/>
<path d="M3110 3610 c-34 -7 -34 -7 -5 -8 17 0 41 4 55 8 33 11 0 11 -50 0z"/>
<path d="M3018 3593 c12 -2 30 -2 40 0 9 3 -1 5 -23 4 -22 0 -30 -2 -17 -4z"/>
<path d="M2877 3583 c18 -2 50 -2 70 0 21 2 7 4 -32 4 -38 0 -55 -2 -38 -4z"/>
</g>
</svg>
